<svg width="50" height="102" viewBox="0 0 50 102" fill="none" xmlns="http://www.w3.org/2000/svg">
<path d="M45 21.3743C45 25.6946 43.5473 29.8941 40.8671 33.3217C38.1869 36.7492 34.4291 39.2131 30.1764 40.3313C25.9237 41.4494 21.4139 41.1594 17.3464 39.5061C13.2788 37.8528 9.88086 34.9286 7.67952 31.1871C5.47818 27.4457 4.59647 23.0959 5.17113 18.8126C5.7458 14.5293 7.74472 10.5517 10.8579 7.49682C13.9711 4.44191 18.0245 2.48039 22.3895 1.91648C26.7545 1.35257 31.1872 2.21778 35 4.37793M35 4.37793L30.7143 4.15174M35 4.37793L32.2659 0.999998" stroke="black" stroke-width="2" stroke-linecap="round" stroke-linejoin="round"/>
<path d="M5 81.3743C5 85.6946 6.45275 89.8941 9.13293 93.3217C11.8131 96.7492 15.5709 99.2131 19.8236 100.331C24.0763 101.449 28.5861 101.159 32.6536 99.5061C36.7212 97.8528 40.1191 94.9286 42.3205 91.1871C44.5218 87.4457 45.4035 83.0959 44.8289 78.8126C44.2542 74.5293 42.2553 70.5517 39.1421 67.4968C36.0289 64.4419 31.9755 62.4804 27.6105 61.9165C23.2455 61.3526 18.8128 62.2178 15 64.3779M15 64.3779L19.2857 64.1517M15 64.3779L17.7341 61" stroke="black" stroke-width="2" stroke-linecap="round" stroke-linejoin="round"/>
<path d="M29 80V82H21V80H29Z" fill="black"/>
<path d="M24.2 25V17H25.8V25H24.2ZM21 21.8V20.2H29V21.8H21Z" fill="black"/>
<line y1="49.5" x2="50" y2="49.5" stroke="black"/>
</svg>
