<svg width="101" height="101" viewBox="0 0 101 101" fill="none" xmlns="http://www.w3.org/2000/svg">
<path d="M51.5 58.5V38.5H53.5V58.5H51.5ZM42.5 49.5V47.5H62.5V49.5H42.5Z" fill="black"/>
<path d="M8.03033 0.46967C7.73743 0.176777 7.26256 0.176777 6.96967 0.46967L2.19669 5.24264C1.9038 5.53553 1.9038 6.01041 2.1967 6.3033C2.48959 6.59619 2.96446 6.59619 3.25736 6.3033L7.5 2.06066L11.7426 6.3033C12.0355 6.59619 12.5104 6.59619 12.8033 6.3033C13.0962 6.01041 13.0962 5.53553 12.8033 5.24264L8.03033 0.46967ZM8.25 101L8.25 1L6.75 1L6.75 101L8.25 101Z" fill="black"/>
<path d="M100.53 94.0303C100.823 93.7374 100.823 93.2626 100.53 92.9697L95.7574 88.1967C95.4645 87.9038 94.9896 87.9038 94.6967 88.1967C94.4038 88.4896 94.4038 88.9645 94.6967 89.2574L98.9393 93.5L94.6967 97.7426C94.4038 98.0355 94.4038 98.5104 94.6967 98.8033C94.9896 99.0962 95.4645 99.0962 95.7574 98.8033L100.53 94.0303ZM0 94.25L100 94.25V92.75L0 92.75L0 94.25Z" fill="black"/>
<path fill-rule="evenodd" clip-rule="evenodd" d="M78.7109 30.3882C73.052 23.0134 65.3334 17.4823 56.531 14.4943C47.7286 11.5063 38.2378 11.1956 29.2588 13.6015L29 12.6356C38.17 10.1785 47.8627 10.4958 56.8524 13.5474C65.8421 16.5989 73.725 22.2477 79.5043 29.7794C85.2836 37.3111 88.6996 46.3875 89.3205 55.8606C89.9154 64.9368 87.9189 73.9868 83.5759 81.96L89.2603 80.4369C89.527 80.3654 89.8012 80.5237 89.8726 80.7905C89.9441 81.0572 89.7858 81.3314 89.5191 81.4028L82.206 83.3624L80.2464 76.0493C80.175 75.7825 80.3333 75.5084 80.6 75.4369C80.8667 75.3654 81.1409 75.5237 81.2124 75.7905L82.7243 81.4329C86.9584 73.6376 88.904 64.7946 88.3227 55.926C87.7147 46.6502 84.3698 37.763 78.7109 30.3882Z" fill="black"/>
</svg>
