<svg width="101" height="101" viewBox="0 0 101 101" fill="none" xmlns="http://www.w3.org/2000/svg">
<path fill-rule="evenodd" clip-rule="evenodd" d="M9 0.439341C9.58579 -0.146446 11.4142 -0.146448 12 0.439339L21.6525 9.42462C22.2383 10.0104 22.2383 10.9601 21.6525 11.5459C21.0668 12.1317 20.117 12.1317 19.5312 11.5459L12 4.459V100.439H9V4.459L2.56066 11.5459C1.97487 12.1317 1.02513 12.1317 0.439339 11.5459C-0.146446 10.9602 -0.146446 10.0104 0.439339 9.42462L9 0.439341Z" fill="black"/>
<path fill-rule="evenodd" clip-rule="evenodd" d="M87.5459 95.3787V1.10269e-06L90.5459 0V95.3787L97.5312 88.3934C98.117 87.8076 99.0668 87.8076 99.6525 88.3934C100.238 88.9792 100.238 89.9289 99.6525 90.5147L90.1066 100.061C89.5208 100.646 88.5711 100.646 87.9853 100.061L78.4393 90.5147C77.8536 89.9289 77.8536 88.9792 78.4393 88.3934C79.0251 87.8076 79.9749 87.8076 80.5607 88.3934L87.5459 95.3787Z" fill="black"/>
<line x1="46.5" y1="2.18557e-08" x2="46.5" y2="100" stroke="black"/>
<path d="M28 55V45H30V55H28ZM24 51V49H34V51H24Z" fill="black"/>
<path d="M72.5 49V51H62.5V49H72.5Z" fill="black"/>
</svg>
