<svg width="51" height="52" viewBox="0 0 51 52" fill="none" xmlns="http://www.w3.org/2000/svg">
<path d="M50.5 26.0333C50.5 31.4337 48.684 36.6832 45.3338 40.9676C41.9836 45.252 37.2863 48.3318 31.9705 49.7296C26.6546 51.1273 21.0173 50.7647 15.9329 48.6981C10.8485 46.6314 6.60104 42.9763 3.84937 38.2994C1.09769 33.6226 -0.00444824 28.1854 0.713883 22.8313C1.43221 17.4771 3.93087 12.5051 7.82233 8.68651C11.7138 4.86787 16.7806 2.41598 22.2368 1.71109C27.6931 1.0062 33.2339 2.08771 38 4.78789M38 4.78789L32.6428 4.50516M38 4.78789L34.5823 0.565481" stroke="black" stroke-linecap="round" stroke-linejoin="round"/>
</svg>
