<svg width="100" height="26" viewBox="0 0 100 26" fill="none" xmlns="http://www.w3.org/2000/svg">
<line y1="25.5" x2="100" y2="25.5" stroke="black"/>
<path d="M75 25.5L72.1132 20.5H77.8868L75 25.5ZM25 26L22.1132 21H27.8868L25 26ZM74.2334 12.816L74.1167 13.3022L74.1167 13.3022L74.2334 12.816ZM26.2334 1.29601L26.3501 0.809816L26.3501 0.809816L26.2334 1.29601ZM75.5 13.7884V21H74.5V13.7884H75.5ZM25.5 2.2684V21.5H24.5V2.2684H25.5ZM74.1167 13.3022L26.1167 1.7822L26.3501 0.809816L74.3501 12.3298L74.1167 13.3022ZM24.5 2.2684C24.5 1.29837 25.4068 0.58344 26.3501 0.809816L26.1167 1.7822C25.8023 1.70674 25.5 1.94506 25.5 2.2684H24.5ZM74.5 13.7884C74.5 13.5572 74.3415 13.3562 74.1167 13.3022L74.3501 12.3298C75.0245 12.4917 75.5 13.0948 75.5 13.7884H74.5Z" fill="black"/>
</svg>
