<svg width="87" height="88" viewBox="0 0 87 88" fill="none" xmlns="http://www.w3.org/2000/svg">
<path d="M19 87.6025L24 84.7158L19 81.829L19 87.6025ZM68.567 0.75L20.817 83.4554L21.683 83.9554L69.433 1.25L68.567 0.75Z" fill="black"/>
<line y1="87.5" x2="87" y2="87.5" stroke="black"/>
<path d="M60.8179 62.4167H63.4414L61.8519 69.5617C61.5432 70.9198 61.3323 71.7531 61.2191 72.0617C61.6307 73.9547 62.2274 74.9012 63.0093 74.9012C63.9352 74.9012 64.4136 74.2634 64.4444 72.9877H65C64.9691 74.1811 64.7479 75.1481 64.3364 75.8889C63.9352 76.6193 63.4053 76.9846 62.7469 76.9846C62.2016 76.9846 61.7953 76.7634 61.5278 76.321C61.2603 75.8786 60.9722 74.9733 60.6636 73.6049C59.5936 75.858 57.8447 76.9846 55.4167 76.9846C53.7603 76.9846 52.4434 76.3416 51.466 75.0556C50.4887 73.7593 50 71.9074 50 69.5C50 67.1337 50.535 65.2922 51.6049 63.9753C52.6749 62.6584 53.9609 62 55.463 62C56.5226 62 57.392 62.3755 58.071 63.1265C58.75 63.8776 59.3519 65.1019 59.8765 66.7994L60.8179 62.4167ZM59.4599 68.466C58.9763 66.8097 58.4362 65.5185 57.8395 64.5926C57.2428 63.6564 56.5278 63.1883 55.6944 63.1883C53.8117 63.1883 52.8704 65.3899 52.8704 69.7932C52.8704 73.9702 53.7706 76.0586 55.571 76.0586C57.1348 76.0586 58.2922 74.2171 59.0432 70.5339L59.4599 68.466Z" fill="black"/>
<path fill-rule="evenodd" clip-rule="evenodd" d="M33.4325 65.9152C33.4071 65.899 33.3816 65.8828 33.356 65.8667C33.2152 65.7777 33.0733 65.69 32.9305 65.6037C32.788 65.5175 32.6444 65.4328 32.5 65.3494L31.9792 66.2515L31.1131 65.7515L32.134 63.9833L33 64.4833C33.328 64.6727 33.6513 64.8689 33.9698 65.0718L33.4325 65.9152ZM30.9375 68.0557L30.0715 67.5557L29.0298 69.3599L29.8958 69.8599L30.9375 68.0557ZM28.8542 71.6641L27.9881 71.1641L26.9465 72.9684L27.8125 73.4684L28.8542 71.6641ZM26.7708 75.2726L25.9048 74.7726L24.8631 76.5768L25.7292 77.0768L26.7708 75.2726ZM24.6875 78.881L23.8215 78.381L22.7798 80.1852L23.6458 80.6852L24.6875 78.881ZM22.6042 82.4894L21.7381 81.9894L20.6965 83.7937L21.5625 84.2937L22.6042 82.4894ZM20.5774 86H20.3513L19.6548 85.5979L18.268 88H21.0417V87.1958L21.1547 87H20L20.5774 86ZM23.125 87V88H25.2083V87H23.125ZM27.2917 87V88H29.375V87H27.2917ZM31.4583 87V88H33.5417V87H31.4583ZM35.625 87V88L37.7083 88V87H35.625ZM39.7917 87V88H41.875V87H39.7917ZM43.9583 87V88H46V87C46 86.6213 45.9917 86.2432 45.9753 85.8659L44.9762 85.9095C44.9775 85.9396 44.9788 85.9698 44.98 86C44.9867 86.1665 44.9917 86.3332 44.995 86.5C44.9983 86.6665 45 86.8332 45 87H43.9583ZM44.7861 83.7368L45.7776 83.6063C45.6788 82.8557 45.5473 82.1104 45.3837 81.3726L44.4074 81.589C44.5647 82.2984 44.6911 83.0151 44.7861 83.7368ZM43.8429 79.4824L44.7966 79.1817C44.5694 78.4609 44.3106 77.7497 44.0209 77.0502L43.097 77.4329C43.3756 78.1055 43.6244 78.7893 43.8429 79.4824ZM42.1753 75.4563L43.0623 74.9946C42.8879 74.6596 42.706 74.328 42.5167 74C42.3273 73.672 42.1311 73.3487 41.9282 73.0302L41.0848 73.5675C41.2799 73.8738 41.4686 74.1847 41.6506 74.5C41.8327 74.8153 42.0076 75.1342 42.1753 75.4563ZM39.8338 71.781L40.6272 71.1722C40.1663 70.5715 39.6798 69.9918 39.1692 69.4346L38.4319 70.1102C38.9229 70.646 39.3907 71.2034 39.8338 71.781ZM36.8898 68.5681L37.5654 67.8308C37.0082 67.3202 36.4285 66.8337 35.8278 66.3728L35.219 67.1662C35.7966 67.6093 36.354 68.0771 36.8898 68.5681Z" fill="black"/>
</svg>
